<?xml version="1.0" encoding="utf-8"?>
<!-- Generator: Adobe Illustrator 25.0.0, SVG Export Plug-In . SVG Version: 6.00 Build 0)  -->
<svg version="1.1" id="Layer_1" xmlns="http://www.w3.org/2000/svg" xmlns:xlink="http://www.w3.org/1999/xlink" x="0px" y="0px"
	 viewBox="0 0 580 212" style="enable-background:new 0 0 580 212;" xml:space="preserve">
<style type="text/css">
	.st0{fill:#FFFFFF;}
	.st1{fill:#FFEB3B;}
	.st2{fill:#303030;}
</style>
<g>
	<rect x="6" y="6" class="st0" width="541" height="171"/>
	<polygon class="st1" points="575.33,35 547.33,35 547.33,179 32.33,179 32.33,207 575.33,207 	"/>
	<g>
		<path class="st2" d="M541.17,27.09v11.75h27.41v161.74H39.49v-27.42H27.74v39.17h552.59V27.09H541.17z"/>
	</g>
	<path class="st2" d="M0.33-0.33v185.24h552.59V-0.33H0.33z M541.17,173.16H12.08V11.42h529.09V173.16z"/>
	<g>
		<g>
			<path class="st2" d="M102.22,73.1L73.04,90.07l29.18,17.09v11.32l-49.04-28.4l49.04-28.29V73.1z"/>
		</g>
		<g>
			<path class="st2" d="M166.57,47.69c-5.18,14.2-10.36,28.37-15.53,42.49c-5.18,14.13-10.39,28.25-15.64,42.38h-9.43
				c5.18-14.13,10.37-28.25,15.59-42.38c5.21-14.13,10.45-28.29,15.7-42.49H166.57z"/>
		</g>
		<g>
			<path class="st2" d="M195.97,68.11l1,13.31l-0.44-1.89c1.18-2.74,2.88-5.1,5.1-7.1c2.22-2,4.59-3.51,7.1-4.55
				c2.51-1.03,4.66-1.59,6.43-1.66l-0.44,10.43c-3.55-0.29-6.64,0.35-9.26,1.94c-2.63,1.59-4.7,3.66-6.21,6.21
				c-1.52,2.55-2.27,5.31-2.27,8.27v20.97h-10.32V68.11H195.97z"/>
		</g>
		<g>
			<path class="st2" d="M233.47,90.07c0-4.59,1.09-8.73,3.27-12.43c2.18-3.7,5.21-6.62,9.1-8.76c3.88-2.14,8.3-3.22,13.26-3.22
				c4.95,0,9.32,1.07,13.09,3.22c3.77,2.15,6.71,5.07,8.82,8.76c2.11,3.7,3.16,7.84,3.16,12.43c0,4.59-1.05,8.73-3.16,12.43
				c-2.11,3.7-5.05,6.64-8.82,8.82c-3.77,2.18-8.17,3.27-13.2,3.27c-4.96,0-9.34-1.02-13.15-3.05c-3.81-2.03-6.82-4.88-9.04-8.54
				S233.47,95.03,233.47,90.07z M243.9,90.19c0,2.96,0.67,5.64,2,8.04c1.33,2.4,3.11,4.31,5.33,5.71c2.22,1.41,4.73,2.11,7.54,2.11
				c2.88,0,5.44-0.7,7.66-2.11c2.22-1.4,3.97-3.31,5.27-5.71c1.29-2.4,1.94-5.08,1.94-8.04c0-2.96-0.65-5.64-1.94-8.04
				c-1.29-2.4-3.05-4.33-5.27-5.77c-2.22-1.44-4.77-2.16-7.66-2.16c-2.81,0-5.34,0.74-7.6,2.22c-2.26,1.48-4.03,3.42-5.33,5.82
				C244.54,84.66,243.9,87.3,243.9,90.19z"/>
		</g>
		<g>
			<path class="st2" d="M331.32,136.89c-3.4,0-6.42-0.41-9.04-1.22c-2.63-0.81-4.99-1.92-7.1-3.33c-2.11-1.41-4.16-2.96-6.16-4.66
				l6.1-7.1c2.44,2.22,4.92,3.96,7.43,5.21c2.51,1.26,5.33,1.89,8.43,1.89c3.48,0,6.42-0.57,8.82-1.72c2.4-1.15,4.22-2.72,5.44-4.72
				s1.87-4.33,1.94-6.99l0.11-12.43l0.89,2c-1.33,3.18-3.74,5.86-7.21,8.04c-3.48,2.18-7.69,3.27-12.65,3.27
				c-4.14,0-7.99-1.07-11.54-3.22s-6.4-5.05-8.54-8.71c-2.15-3.66-3.22-7.78-3.22-12.37c0-4.81,1.11-9.06,3.33-12.76
				c2.22-3.7,5.16-6.6,8.82-8.71c3.66-2.11,7.64-3.16,11.93-3.16c4.07,0,7.78,0.83,11.15,2.5c3.36,1.66,5.86,3.79,7.49,6.38
				l-0.67,1.89l1-8.88h9.54v46.26c0,4.14-1.05,7.91-3.16,11.32c-2.11,3.4-5.14,6.12-9.1,8.15
				C341.4,135.88,336.72,136.89,331.32,136.89z M315.46,90.63c0,2.96,0.72,5.66,2.16,8.1c1.44,2.44,3.36,4.36,5.77,5.77
				c2.4,1.41,5.05,2.11,7.93,2.11c2.74,0,5.2-0.5,7.38-1.5c2.18-1,4.01-2.39,5.49-4.16c1.48-1.78,2.51-3.73,3.11-5.88v-9.21
				c-0.67-2.22-1.78-4.14-3.33-5.77c-1.55-1.63-3.4-2.92-5.55-3.88c-2.15-0.96-4.51-1.44-7.1-1.44c-2.88,0-5.53,0.68-7.93,2.05
				c-2.4,1.37-4.33,3.24-5.77,5.6C316.18,84.79,315.46,87.52,315.46,90.63z"/>
		</g>
		<g>
			<path class="st2" d="M395.78,68.11l1,13.31l-0.44-1.89c1.18-2.74,2.88-5.1,5.1-7.1c2.22-2,4.59-3.51,7.1-4.55
				c2.51-1.03,4.66-1.59,6.43-1.66l-0.44,10.43c-3.55-0.29-6.64,0.35-9.26,1.94c-2.63,1.59-4.7,3.66-6.21,6.21
				c-1.52,2.55-2.27,5.31-2.27,8.27v20.97h-10.32V68.11H395.78z"/>
		</g>
		<g>
			<path class="st2" d="M440.71,107.16l29.18-17.09l-29.18-17.09V61.78l49.15,28.29l-49.15,28.4V107.16z"/>
		</g>
	</g>
</g>
</svg>
